<?xml version="1.0" standalone="no"?>
<!DOCTYPE svg PUBLIC "-//W3C//DTD SVG 20010904//EN"
 "http://www.w3.org/TR/2001/REC-SVG-20010904/DTD/svg10.dtd">
<svg version="1.0" xmlns="http://www.w3.org/2000/svg"
 width="757.000000pt" height="211.000000pt" viewBox="0 0 757.000000 211.000000"
 preserveAspectRatio="xMidYMid meet">

<g transform="translate(0.000000,211.000000) scale(0.100000,-0.100000)"
fill="#000000" stroke="none">
<path d="M940 2081 c-43 -14 -743 -412 -774 -440 -56 -51 -56 -53 -56 -526 0
-415 1 -438 20 -475 11 -21 34 -50 52 -63 30 -22 207 -124 608 -350 164 -92
231 -114 298 -97 45 11 568 298 697 382 92 60 106 87 117 221 6 62 7 251 5
422 -5 286 -7 315 -27 370 -44 122 -5 93 -530 389 -304 171 -346 188 -410 167z
m640 -546 c16 -8 34 -24 40 -34 6 -13 10 -148 10 -368 0 -328 -1 -350 -20
-380 -42 -70 -24 -68 -627 -68 -531 0 -542 0 -569 21 -15 11 -37 33 -48 48
-20 27 -21 40 -21 383 l0 355 33 29 32 29 571 0 c489 0 574 -2 599 -15z"/>
<path d="M1170 1480 c-16 -31 4 -62 38 -58 21 2 28 9 30 32 5 45 -47 65 -68
26z"/>
<path d="M1300 1485 c-26 -32 13 -81 48 -59 34 22 22 74 -18 74 -10 0 -23 -7
-30 -15z"/>
<path d="M1430 1485 c-26 -32 13 -81 48 -59 34 22 22 74 -18 74 -10 0 -23 -7
-30 -15z"/>
<path d="M400 1068 c1 -287 1 -292 47 -316 16 -9 168 -12 551 -12 l530 0 26
31 26 31 0 269 0 269 -590 0 -590 0 0 -272z m650 135 c0 -5 -9 -35 -19 -68
-10 -33 -31 -99 -46 -147 -25 -86 -27 -88 -57 -88 -24 0 -29 3 -24 16 4 9 25
79 49 155 40 135 42 139 69 139 16 0 28 -3 28 -7z m-182 -55 c-3 -31 -5 -32
-113 -66 l-110 -35 110 -36 c109 -36 110 -37 113 -69 3 -29 1 -33 -15 -28 -10
3 -83 28 -163 54 -140 47 -145 50 -148 78 l-3 29 153 52 c84 28 159 52 166 52
9 1 12 -9 10 -31z m402 -26 c132 -44 145 -51 148 -74 3 -24 -4 -27 -147 -77
-83 -28 -158 -54 -166 -57 -12 -5 -15 2 -15 28 l0 34 113 35 112 35 -110 35
c-109 34 -110 35 -113 68 -3 28 -1 32 15 27 10 -3 83 -28 163 -54z"/>
<path d="M3080 1347 c-46 -23 -51 -47 -48 -250 l3 -189 28 -24 c28 -24 30 -24
248 -24 l220 0 -3 38 -3 37 -207 3 -208 2 0 170 0 170 210 0 210 0 0 40 0 40
-212 0 c-151 0 -220 -4 -238 -13z"/>
<path d="M5334 1348 c-43 -20 -49 -50 -49 -245 l0 -185 33 -29 32 -29 215 0
215 0 0 40 0 40 -210 0 -210 0 0 170 0 170 210 0 210 0 0 40 0 40 -212 -1
c-125 0 -222 -5 -234 -11z"/>
<path d="M4810 1209 c0 -17 27 -45 35 -37 3 3 -3 16 -14 29 -16 19 -20 20 -21
8z"/>
<path d="M2060 1050 c0 -23 29 -27 48 -8 19 19 14 28 -18 28 -23 0 -30 -4 -30
-20z"/>
<path d="M4640 1020 c0 -39 3 -51 10 -40 5 8 10 26 10 40 0 14 -5 32 -10 40
-7 11 -10 -1 -10 -40z"/>
<path d="M7100 1055 c0 -21 27 -30 45 -15 23 19 18 30 -15 30 -20 0 -30 -5
-30 -15z"/>
<path d="M4230 1015 c0 -21 27 -30 45 -15 23 19 18 30 -15 30 -20 0 -30 -5
-30 -15z"/>
<path d="M5210 908 c1 -49 2 -51 15 -34 16 21 19 44 9 70 -12 32 -24 14 -24
-36z"/>
</g>
</svg>
